<svg width="257" height="256" viewBox="0 0 257 256" fill="none" xmlns="http://www.w3.org/2000/svg">
<path d="M47.5 67.5C47.5 61.9772 51.9772 57.5 57.5 57.5H226.5C232.023 57.5 236.5 61.9772 236.5 67.5V181.5H47.5V67.5Z" fill="white" stroke="#616162" stroke-width="5"/>
<path fill-rule="evenodd" clip-rule="evenodd" d="M159.603 76.7272C151.107 78.1334 149.114 87.7428 146.536 98.817C146.151 101.47 135.221 118.384 133.821 121.317C130.162 127.184 117.101 136.477 115.306 138.837C119.943 141.904 126.128 147.529 128.782 152.137C130.127 154.472 135.276 163.868 136.341 165.965C142.317 162.801 153.322 151.596 157.259 146.161C159.566 142.975 166.107 137.606 170.56 136.376C170.56 136.376 176.185 135.965 185.56 141.005C181.836 130.193 174.16 106.337 172.435 100.106C172.435 100.106 165.403 76.5513 159.603 76.7272Z" fill="#F57729"/>
<path d="M113.692 135.515L113.842 135.611L113.982 135.5C116.108 133.808 118.898 131.524 121.552 129.222C122.906 128.048 124.182 126.906 125.301 125.856L125.522 125.649L125.277 125.472L119.377 121.194L119.25 121.102L119.112 121.176L119.07 121.199L119.07 121.199C118.496 121.505 117.776 121.856 116.967 122.231C115.343 122.984 113.244 123.89 110.981 124.836C108.381 125.922 105.534 127.072 102.883 128.119L102.432 128.297L102.839 128.561C104.99 129.957 107.478 131.545 110.04 133.181L110.054 133.19C111.259 133.96 112.481 134.74 113.692 135.515ZM123.635 117.138L123.438 117.345L123.669 117.513L129.103 121.452L129.302 121.596L129.45 121.4C131.347 118.879 134.83 114.105 138.069 108.912C139.833 106.085 141.5 103.171 142.796 100.456C142.846 100.352 143.097 99.9394 143.467 99.3479C143.799 98.8157 144.217 98.155 144.641 97.4832L144.76 97.2944C145.225 96.559 145.69 95.8235 146.05 95.243C146.231 94.9528 146.386 94.7004 146.502 94.5057C146.615 94.3182 146.701 94.1678 146.734 94.0925L146.316 93.8293C146.206 93.9566 145.892 94.3945 145.488 94.9661C145.123 95.484 144.675 96.1254 144.218 96.7787L144.057 97.009C143.546 97.7409 143.035 98.4714 142.626 99.0468C142.212 99.6311 141.916 100.036 141.828 100.134C139.638 102.56 137.104 105.047 135.232 106.281C132.048 108.379 129.568 110.109 127.992 112.203C126.989 113.537 125.241 115.456 123.635 117.138Z" fill="#068CFC" stroke="#068CFC" stroke-width="0.5"/>
<path d="M96.5 127.655L95.6112 125.318C94.7451 125.648 94.1323 126.429 94.0188 127.349C93.9053 128.269 94.3098 129.176 95.0698 129.706L96.5 127.655ZM118.787 118.14L120.525 119.938V119.938L118.787 118.14ZM125.792 110.558L127.79 112.061L125.792 110.558ZM133.717 103.992L132.341 101.905V101.905L133.717 103.992ZM144.896 91.6824L147.077 92.9046V92.9046L144.896 91.6824ZM173.481 102.898L175.89 102.231V102.231L173.481 102.898ZM186.5 142.153L185.099 144.224C185.992 144.828 187.171 144.792 188.025 144.134C188.879 143.477 189.216 142.346 188.86 141.328L186.5 142.153ZM157.491 145.163L159.515 146.629H159.515L157.491 145.163ZM143.906 161.439L142.212 159.6L142.212 159.6L143.906 161.439ZM135.981 166.5L133.835 167.783C134.404 168.734 135.532 169.198 136.605 168.921L135.981 166.5ZM119.708 142.701L118.328 144.786L119.708 142.701ZM112.789 136.765C111.701 137.615 111.508 139.186 112.358 140.274C113.209 141.362 114.78 141.555 115.868 140.704L112.789 136.765ZM131.168 123.689L129.178 122.175L131.168 123.689ZM147.937 93.9303L150.411 94.2895L147.937 93.9303ZM97.3888 129.992C101.066 128.593 106.352 126.505 110.882 124.613C113.145 123.668 115.24 122.763 116.86 122.012C117.667 121.637 118.382 121.289 118.95 120.986C119.411 120.74 120.078 120.37 120.525 119.938L117.05 116.343C117.186 116.211 117.152 116.278 116.594 116.576C116.145 116.816 115.526 117.119 114.756 117.476C113.222 118.187 111.195 119.064 108.955 119.999C104.481 121.868 99.2454 123.936 95.6112 125.318L97.3888 129.992ZM120.525 119.938C122.086 118.429 126.059 114.362 127.79 112.061L123.795 109.055C122.322 111.012 118.603 114.842 117.05 116.343L120.525 119.938ZM127.79 112.061C129.396 109.926 131.915 108.174 135.093 106.08L132.341 101.905C129.293 103.914 126.009 106.112 123.795 109.055L127.79 112.061ZM135.093 106.08C136.936 104.865 139.451 102.399 141.64 99.974C143.842 97.5346 146.015 94.8003 147.077 92.9046L142.715 90.4602C141.938 91.8472 140.078 94.242 137.928 96.624C135.766 99.02 133.611 101.068 132.341 101.905L135.093 106.08ZM147.077 92.9046C147.986 91.2824 150.087 87.623 152.594 84.3928C153.851 82.7728 155.143 81.3488 156.371 80.3521C157.659 79.307 158.549 79 159.047 79V74C156.821 74 154.81 75.1804 153.221 76.4692C151.573 77.8063 150.013 79.5623 148.643 81.3276C145.896 84.8679 143.646 88.7998 142.715 90.4602L147.077 92.9046ZM159.047 79C159.01 79 159.182 78.9875 159.607 79.2846C160.027 79.5785 160.551 80.0773 161.158 80.8293C162.372 82.3339 163.667 84.5322 164.946 87.1533C167.491 92.3725 169.759 98.8228 171.072 103.565L175.89 102.231C174.515 97.2621 172.148 90.5133 169.44 84.9614C168.091 82.1968 166.605 79.6164 165.049 77.6888C164.27 76.7247 163.412 75.8439 162.473 75.1874C161.539 74.534 160.376 74 159.047 74V79ZM171.072 103.565C173.25 111.433 180.708 133.164 184.14 142.979L188.86 141.328C185.405 131.447 178.014 109.901 175.89 102.231L171.072 103.565ZM187.901 140.083C186.404 139.07 183.944 137.571 181.35 136.313C178.875 135.114 175.834 133.909 173.34 133.909V138.909C174.581 138.909 176.705 139.619 179.169 140.813C181.513 141.949 183.766 143.322 185.099 144.224L187.901 140.083ZM173.34 133.909C170.493 133.909 167.122 134.885 163.993 136.518C160.84 138.163 157.718 140.586 155.466 143.696L159.515 146.629C161.225 144.268 163.693 142.314 166.306 140.95C168.944 139.574 171.517 138.909 173.34 138.909V133.909ZM155.466 143.696C151.525 149.138 144.993 157.04 142.212 159.6L145.599 163.279C148.762 160.367 155.532 152.13 159.515 146.629L155.466 143.696ZM142.212 159.6C139.348 162.237 136.885 163.685 135.357 164.079L136.605 168.921C139.323 168.22 142.52 166.113 145.599 163.279L142.212 159.6ZM138.127 165.217C137.261 163.769 136.332 161.935 135.25 159.803C134.184 157.705 132.993 155.366 131.656 153.045C129.01 148.452 125.623 143.616 121.087 140.615L118.328 144.786C121.858 147.12 124.768 151.106 127.323 155.54C128.586 157.732 129.721 159.959 130.791 162.067C131.845 164.141 132.861 166.153 133.835 167.783L138.127 165.217ZM121.087 140.615C113.647 135.695 102.499 128.791 97.9302 125.605L95.0698 129.706C99.6519 132.902 111.187 140.063 118.328 144.786L121.087 140.615ZM115.868 140.704C118.111 138.951 121.647 136.093 124.987 133.196C128.258 130.36 131.561 127.302 133.158 125.203L129.178 122.175C127.945 123.796 125.044 126.529 121.712 129.419C118.448 132.249 114.979 135.053 112.789 136.765L115.868 140.704ZM133.158 125.203C134.948 122.849 138.872 117.546 142.52 111.698C144.343 108.774 146.12 105.68 147.53 102.726C148.922 99.8082 150.036 96.8676 150.411 94.2895L145.462 93.5712C145.196 95.4051 144.336 97.8091 143.017 100.572C141.716 103.298 140.044 106.22 138.277 109.052C134.745 114.714 130.925 119.879 129.178 122.175L133.158 125.203ZM150.411 94.2895C151.59 86.1642 153.659 82.4559 155.942 80.7509L152.95 76.745C149.006 79.6905 146.688 85.1291 145.462 93.5712L150.411 94.2895ZM117.531 119.558L127.153 126.534L130.088 122.486L120.465 115.51L117.531 119.558Z" fill="#333333"/>
<path d="M30 183.091C30 191.877 37.1227 199 45.9091 199H238.091C246.877 199 254 191.877 254 183.091C254 182.212 253.288 181.5 252.409 181.5H31.5909C30.7123 181.5 30 182.212 30 183.091Z" fill="#D9D9D9" stroke="#616162" stroke-width="5"/>
<path d="M119.5 183.5C119.5 186.261 121.739 188.5 124.5 188.5H159.5C162.261 188.5 164.5 186.261 164.5 183.5V181.5H119.5V183.5Z" fill="#A6A6A6" stroke="#616162" stroke-width="5"/>
<path d="M2.5 102.5L2.5 135.545L29.5 135.5L29.5 157.5L77 119L29.5 80.5L29.5 102.5H2.5Z" fill="#B4DEFF" stroke="#1656A7" stroke-width="5"/>
</svg>
